<?xml version="1.0" standalone="no"?>
<!DOCTYPE svg PUBLIC "-//W3C//DTD SVG 20010904//EN"
 "http://www.w3.org/TR/2001/REC-SVG-20010904/DTD/svg10.dtd">
<svg version="1.0" xmlns="http://www.w3.org/2000/svg"
 width="222.000000pt" height="222.000000pt" viewBox="0 0 222.000000 222.000000"
 preserveAspectRatio="xMidYMid meet">
<metadata>
Created by potrace 1.11, written by Peter Selinger 2001-2013
</metadata>
<g transform="translate(0.000000,222.000000) scale(0.100000,-0.100000)"
fill="#000000" stroke="none">
<path d="M1235 2079 c-91 -7 -184 -43 -284 -109 -34 -23 -66 -38 -71 -35 -6 3
-10 0 -10 -7 0 -8 -37 -50 -82 -93 -115 -111 -183 -197 -235 -298 -24 -48 -27
-62 -26 -167 0 -116 1 -123 21 -172 15 -36 30 -35 46 3 7 17 27 47 44 67 46
55 94 116 122 157 14 20 40 55 57 78 18 23 33 45 33 49 0 7 73 126 139 228 20
30 39 63 43 72 4 10 12 18 18 18 5 0 10 7 10 15 0 22 93 92 132 98 80 15 171
-11 223 -62 22 -21 40 -43 41 -48 0 -4 6 -21 13 -38 12 -28 11 -62 -4 -139 -5
-26 -4 -28 20 -22 23 6 25 4 25 -31 0 -21 -5 -90 -10 -153 -5 -63 -12 -143
-15 -177 -3 -40 -1 -64 6 -69 13 -8 83 13 119 36 14 9 34 21 45 26 19 11 20
21 20 180 0 197 -8 293 -25 304 -6 4 -11 10 -9 14 1 4 -10 34 -25 66 -33 70
-93 142 -138 163 -120 54 -125 56 -243 46z"/>
<path d="M600 1974 c-13 -33 -31 -68 -40 -79 -9 -11 -22 -33 -29 -50 -6 -16
-25 -45 -41 -64 -17 -18 -30 -36 -30 -40 0 -3 -28 -36 -63 -72 -126 -133 -169
-285 -147 -519 11 -120 78 -260 171 -355 71 -74 71 -74 44 -81 -68 -17 -162 8
-272 72 -65 38 -53 -23 19 -96 74 -75 110 -90 215 -90 48 1 105 7 126 14 46
17 55 7 21 -25 -49 -45 -161 -184 -169 -207 -13 -43 3 -91 37 -112 18 -10 35
-17 39 -14 9 5 59 108 59 120 0 4 20 34 45 65 25 32 45 62 45 68 0 6 3 11 8
11 4 0 15 14 24 31 16 27 16 33 3 59 -13 25 -13 29 0 40 8 7 13 16 10 20 -3 5
-1 10 4 12 4 1 11 13 15 25 6 18 0 26 -26 44 -43 29 -115 119 -124 155 -10 39
-14 146 -6 159 14 23 10 60 -15 125 -29 75 -37 158 -23 243 7 45 20 98 28 117
9 19 16 37 17 40 6 22 34 71 58 100 53 64 181 192 225 223 41 30 52 50 33 62
-6 3 -36 10 -68 16 -32 6 -63 15 -69 20 -6 5 -31 12 -56 15 l-45 6 -23 -58z"/>
<path d="M1143 1938 c-37 -26 -39 -35 -17 -66 14 -20 24 -22 100 -22 82 0 87
-1 116 -31 l31 -30 -7 -85 c-8 -92 -2 -100 39 -61 27 25 40 70 44 144 5 103
-70 167 -199 171 -64 2 -80 0 -107 -20z"/>
<path d="M1056 1835 c-8 -32 44 -138 80 -161 14 -10 56 -27 92 -40 61 -20 69
-21 85 -7 19 18 23 58 7 68 -6 4 -24 8 -40 10 -44 6 -97 34 -124 66 -13 15
-26 26 -29 23 -2 -3 -9 8 -15 25 -6 16 -9 31 -7 33 2 2 -7 5 -19 6 -18 1 -26
-5 -30 -23z"/>
<path d="M1160 1807 c0 -7 10 -19 22 -27 12 -8 31 -24 43 -35 32 -31 95 -20
108 18 7 23 6 31 -9 42 -25 19 -164 21 -164 2z"/>
<path d="M1013 1772 c-5 -4 -18 -23 -28 -42 -10 -19 -32 -55 -49 -80 -17 -25
-51 -76 -75 -115 -24 -38 -47 -72 -50 -75 -4 -3 -15 -18 -25 -34 -10 -16 -27
-39 -38 -50 -33 -37 -119 -156 -112 -156 4 0 0 -8 -8 -17 -8 -10 -18 -26 -21
-36 -4 -11 -12 -15 -18 -11 -7 4 -9 3 -6 -3 3 -5 0 -27 -8 -49 -18 -52 -12
-168 12 -219 21 -47 73 -106 108 -125 22 -12 29 -9 91 41 36 30 70 53 75 52 5
-2 9 1 9 7 0 5 19 22 43 37 23 14 72 46 108 70 36 24 70 43 76 43 6 0 13 4 15
9 2 5 21 17 43 28 105 52 195 99 241 128 l50 32 13 159 c6 88 14 175 17 194 7
55 -6 66 -55 46 -24 -9 -69 -16 -109 -16 -56 0 -77 5 -127 32 -73 38 -100 62
-125 110 -22 42 -31 50 -47 40z"/>
<path d="M1820 1329 c-72 -19 -416 -180 -535 -250 -27 -16 -65 -37 -82 -46
-18 -9 -33 -20 -33 -25 0 -4 -5 -8 -10 -8 -6 0 -36 -17 -68 -37 -199 -129
-268 -175 -279 -183 -7 -6 -16 -10 -20 -10 -10 0 -31 -24 -71 -79 -21 -29 -29
-52 -31 -92 -1 -30 -11 -87 -22 -128 -41 -161 -17 -296 68 -371 25 -22 49 -37
54 -35 8 6 -15 94 -34 130 -15 28 -12 188 5 214 16 26 40 27 63 1 10 -11 20
-18 24 -16 3 2 17 -1 31 -7 97 -40 262 -25 358 32 29 17 55 31 57 31 10 0 95
91 123 132 73 105 110 172 113 203 0 6 7 17 14 25 8 8 16 27 18 41 3 15 15 45
26 68 12 22 19 41 17 41 -3 0 6 25 19 55 14 30 22 55 19 55 -3 0 6 14 20 31
14 17 26 36 26 43 0 16 144 166 158 166 5 0 12 7 16 15 6 17 5 17 -44 4z"/>
<path d="M1914 1317 c-28 -11 -44 -21 -105 -69 -21 -17 -105 -140 -114 -167
-3 -12 -11 -21 -16 -21 -6 0 -8 -3 -6 -7 2 -5 -4 -21 -14 -38 -38 -62 -59
-105 -59 -120 0 -21 55 -13 108 14 37 19 122 56 132 56 15 2 88 46 104 64 11
12 23 21 28 21 13 0 29 18 71 79 41 59 44 81 22 134 -26 63 -78 81 -151 54z"/>
</g>
</svg>
