<svg width="17" height="17" viewBox="0 0 17 17" fill="none" xmlns="http://www.w3.org/2000/svg">
<path d="M16.0616 0.390991H0.937573C0.419708 0.391291 -0.000103741 0.795673 1.92296e-08 1.29446V15.8554C0.0003113 16.354 0.420331 16.7582 0.938403 16.7581H9.08105V10.4286H6.87305V7.95118H9.08105V6.12797C9.08105 4.01365 10.4217 2.86284 12.3807 2.86284C13.319 2.86284 14.1253 2.93017 14.3604 2.96024V5.17006H13.0095C11.9437 5.17006 11.7373 5.65765 11.7373 6.37331V7.95118H14.2856L13.9536 10.4286H11.7373V16.7581H16.0616C16.5798 16.7582 16.9999 16.3539 17 15.855C17 15.8549 17 15.8548 17 15.8546V1.29366C16.9998 0.795074 16.5797 0.390891 16.0616 0.390991Z" fill="white"/>
</svg>
