<svg width="16" height="16" viewBox="0 0 16 16" fill="none" xmlns="http://www.w3.org/2000/svg">
<path d="M0 6V14C0 14.5522 0.447693 15 1 15H4V5H1C0.447693 5 0 5.44769 0 6Z" fill="#696969"/>
<path d="M14.1533 5.99981H11.1992C10.9409 5.99981 10.8115 5.82744 10.7681 5.75323C10.7246 5.6795 10.6367 5.48272 10.7617 5.25713L11.8032 3.38164C12.0317 2.971 12.0552 2.48809 11.8682 2.05693C11.6812 1.62529 11.312 1.3123 10.8555 1.19853L10.1211 1.01494C9.94238 0.970019 9.75293 1.02715 9.62841 1.16533L5.64111 5.59502C5.22754 6.05547 5 6.64922 5 7.26738V12.4998C5 13.8782 6.12158 14.9998 7.5 14.9998L12.4741 14.9993C13.5972 14.9993 14.5889 14.243 14.8852 13.1604L15.9526 8.262C15.9839 8.12577 16 7.98612 16 7.84648C16 6.82841 15.1714 5.9998 14.1533 5.9998L14.1533 5.99981Z" fill="#696969"/>
</svg>
