<svg width="16" height="16" viewBox="0 0 16 16" fill="none" xmlns="http://www.w3.org/2000/svg">
<g clip-path="url(#clip0)">
<path d="M14.5455 6.54546H13.8182V3.99999C13.8182 3.79899 13.6556 3.63634 13.4546 3.63634H13.0909V3.27273C13.0909 3.22412 13.081 3.17666 13.0627 3.13279C13.0442 3.08843 13.0174 3.04858 12.9839 3.01521L10.0757 0.106977C10.0424 0.0735 10.0025 0.0467046 9.95817 0.0282273C9.91426 0.00988637 9.8668 0 9.81819 0H4.36364C3.56179 0 2.90908 0.65233 2.90908 1.45456V3.63638H2.54547C2.34447 3.63638 2.18182 3.79903 2.18182 4.00003V6.54546H1.45456C0.652705 6.54546 0 7.19779 0 8.00002V11.6364C0 12.4386 0.652705 13.0909 1.45456 13.0909H2.06632L1.56321 14.223C1.49148 14.3853 1.45452 14.5582 1.45452 14.7365C1.45452 15.4333 2.02129 16 2.71804 16H13.282C13.9787 16 14.5455 15.4333 14.5455 14.7365C14.5455 14.5583 14.5086 14.3853 14.4368 14.223L13.9332 13.0909H14.5454C15.3473 13.0909 16 12.4386 16 11.6364V8.00002C16 7.19779 15.3473 6.54546 14.5455 6.54546ZM3.63638 1.45456C3.63638 1.05365 3.96239 0.727296 4.36364 0.727296H9.45454V2.18182C9.45454 2.98401 10.1072 3.63638 10.9091 3.63638H12.3637V6.54546H3.63638V1.45456ZM12.7181 12.1477L13.7721 14.5185C13.8026 14.5874 13.8182 14.6605 13.8182 14.7365C13.8182 15.0323 13.5774 15.2727 13.282 15.2727H2.71804C2.42257 15.2727 2.18182 15.0323 2.18182 14.7365C2.18182 14.6605 2.19743 14.5874 2.22798 14.5185L3.28197 12.1477C3.33167 12.0352 3.32175 11.9052 3.25425 11.8018C3.1875 11.6985 3.07245 11.6364 2.94955 11.6364H2.54547C2.34518 11.6364 2.18182 11.4734 2.18182 11.2727C2.18182 11.0721 2.34518 10.9091 2.54547 10.9091H13.4546C13.6549 10.9091 13.8182 11.0721 13.8182 11.2727C13.8182 11.4734 13.6549 11.6364 13.4546 11.6364H13.0505C12.9276 11.6364 12.8125 11.6985 12.7457 11.8019C12.6783 11.9052 12.6683 12.0352 12.7181 12.1477Z" fill="#A7A7A7"/>
</g>
<defs>
<clipPath id="clip0">
<rect width="16" height="16" fill="white"/>
</clipPath>
</defs>
</svg>
