<svg width="27" height="18" viewBox="0 0 27 18" fill="none" xmlns="http://www.w3.org/2000/svg">
<path d="M7.48888 16.7728L6.9253 15.3208H6.84888C6.35854 15.9385 5.85228 16.3684 5.33009 16.6104C4.81428 16.846 4.13926 16.9638 3.30504 16.9638C2.27978 16.9638 1.47103 16.6709 0.878797 16.085C0.292932 15.4991 0 14.6649 0 13.5824C0 12.4488 0.394822 11.6146 1.18446 11.0797C1.98048 10.5384 3.17768 10.2391 4.77607 10.1818L6.62918 10.1245V9.65643C6.62918 8.57385 6.07516 8.03256 4.96711 8.03256C4.11379 8.03256 3.11081 8.29047 1.95819 8.80629L0.993422 6.83855C2.22246 6.19537 3.58524 5.87378 5.08174 5.87378C6.51456 5.87378 7.61305 6.18582 8.37722 6.80989C9.14139 7.43396 9.52348 8.38281 9.52348 9.65643V16.7728H7.48888ZM6.62918 11.8248L5.50203 11.863C4.65507 11.8884 4.02463 12.0413 3.61071 12.3215C3.19678 12.6017 2.98982 13.0283 2.98982 13.6015C2.98982 14.4229 3.46106 14.8337 4.40353 14.8337C5.07855 14.8337 5.61666 14.6395 6.01785 14.251C6.4254 13.8625 6.62918 13.3467 6.62918 12.7036V11.8248Z" fill="#A7A7A7"/>
<path d="M23.3817 16.7728L22.5364 14.5949H22.4217C21.6862 15.5215 20.9268 16.1662 20.1435 16.5292C19.3698 16.8826 18.3573 17.0594 17.106 17.0594C15.5681 17.0594 14.355 16.62 13.4666 15.7412C12.5878 14.8624 12.1484 13.611 12.1484 11.9872C12.1484 10.2869 12.7406 9.03557 13.9251 8.23319C15.1191 7.42126 16.9149 6.97231 19.3125 6.88634L22.0922 6.80037V6.09829C22.0922 4.47442 21.2611 3.66249 19.5991 3.66249C18.3191 3.66249 16.8146 4.04935 15.0857 4.82308L13.6385 1.87147C15.4821 0.906699 17.5263 0.424316 19.771 0.424316C21.9202 0.424316 23.568 0.892371 24.7142 1.82848C25.8605 2.76459 26.4336 4.18786 26.4336 6.09829V16.7728H23.3817ZM22.0922 9.35079L20.4015 9.4081C19.131 9.44631 18.1854 9.67556 17.5645 10.0959C16.9436 10.5161 16.6331 11.1561 16.6331 12.0158C16.6331 13.2481 17.34 13.8642 18.7537 13.8642C19.7662 13.8642 20.5734 13.5728 21.1752 12.9902C21.7865 12.4075 22.0922 11.6337 22.0922 10.669V9.35079Z" fill="#A7A7A7"/>
</svg>
