<svg width="18" height="14" viewBox="0 0 18 14" fill="none" xmlns="http://www.w3.org/2000/svg">
<path d="M17.6407 1.88992C16.9847 2.15676 16.2857 2.33362 15.5569 2.4195C16.3067 2.00443 16.8789 1.35217 17.1479 0.565981C16.4489 0.952429 15.6771 1.2254 14.8546 1.37773C14.1909 0.722401 13.2449 0.316528 12.2129 0.316528C10.2107 0.316528 8.59876 1.82347 8.59876 3.67085C8.59876 3.93666 8.62302 4.19225 8.68256 4.43557C5.67591 4.2996 3.01547 2.96339 1.22824 0.927893C0.916216 1.42987 0.733194 2.00443 0.733194 2.62295C0.733194 3.78433 1.37818 4.81384 2.3396 5.40987C1.75856 5.39964 1.18855 5.24322 0.70563 4.99684C0.70563 5.00706 0.70563 5.02035 0.70563 5.03364C0.70563 6.66327 1.95923 8.01686 3.60312 8.32867C3.30874 8.4033 2.9879 8.43909 2.65493 8.43909C2.4234 8.43909 2.18966 8.42682 1.97025 8.38183C2.43883 9.70986 3.7685 10.6862 5.34956 10.7179C4.11911 11.6104 2.55681 12.1482 0.865499 12.1482C0.568914 12.1482 0.284457 12.1359 0 12.1022C1.602 13.0601 3.50059 13.6071 5.54802 13.6071C12.203 13.6071 15.8414 8.49531 15.8414 4.06446C15.8414 3.91622 15.8359 3.77309 15.8282 3.63098C16.5459 3.15866 17.149 2.56876 17.6407 1.88992Z" fill="white"/>
</svg>
