<svg width="152" height="22" viewBox="0 0 152 22" fill="none" xmlns="http://www.w3.org/2000/svg">
<path d="M0.146 21V0.409999H8.875C9.82233 0.409999 10.6923 0.612999 11.485 1.019C12.297 1.40567 12.993 1.92767 13.573 2.585C14.153 3.223 14.6073 3.95767 14.936 4.789C15.2647 5.601 15.429 6.42267 15.429 7.254C15.429 8.124 15.2743 8.97467 14.965 9.806C14.6557 10.618 14.2207 11.343 13.66 11.981C13.0993 12.619 12.4227 13.1313 11.63 13.518C10.8373 13.9047 9.96733 14.098 9.02 14.098H4.148V21H0.146ZM4.148 10.589H8.788C9.52267 10.589 10.1317 10.2893 10.615 9.69C11.1177 9.09067 11.369 8.27867 11.369 7.254C11.369 6.732 11.2917 6.268 11.137 5.862C10.9823 5.43667 10.7793 5.079 10.528 4.789C10.2767 4.499 9.977 4.28633 9.629 4.151C9.30033 3.99633 8.962 3.919 8.614 3.919H4.148V10.589ZM27.0014 21.145C25.4934 21.145 24.1207 20.855 22.8834 20.275C21.6654 19.6757 20.6117 18.8927 19.7224 17.926C18.8524 16.94 18.1757 15.8187 17.6924 14.562C17.209 13.3053 16.9674 12.0197 16.9674 10.705C16.9674 9.33233 17.2187 8.01767 17.7214 6.761C18.2434 5.50433 18.949 4.39267 19.8384 3.426C20.747 2.45933 21.82 1.69567 23.0574 1.135C24.2947 0.554999 25.6384 0.264999 27.0884 0.264999C28.577 0.264999 29.9304 0.574332 31.1484 1.193C32.3857 1.79233 33.4394 2.585 34.3094 3.571C35.1794 4.557 35.856 5.67833 36.3394 6.935C36.8227 8.19167 37.0644 9.46767 37.0644 10.763C37.0644 12.1357 36.813 13.4503 36.3104 14.707C35.8077 15.9443 35.1117 17.0463 34.2224 18.013C33.333 18.9603 32.2697 19.724 31.0324 20.304C29.795 20.8647 28.4514 21.145 27.0014 21.145ZM21.0274 10.705C21.0274 11.5943 21.1627 12.4547 21.4334 13.286C21.704 14.1173 22.0907 14.852 22.5934 15.49C23.1154 16.128 23.7437 16.6403 24.4784 17.027C25.2324 17.4137 26.083 17.607 27.0304 17.607C27.997 17.607 28.8477 17.4137 29.5824 17.027C30.3364 16.621 30.9647 16.0893 31.4674 15.432C31.9894 14.7747 32.376 14.04 32.6274 13.228C32.898 12.3967 33.0334 11.5557 33.0334 10.705C33.0334 9.81567 32.8884 8.95533 32.5984 8.124C32.3277 7.29267 31.9314 6.558 31.4094 5.92C30.9067 5.282 30.2784 4.77933 29.5244 4.412C28.7897 4.02533 27.9584 3.832 27.0304 3.832C26.0637 3.832 25.2034 4.035 24.4494 4.441C23.6954 4.82767 23.067 5.34967 22.5644 6.007C22.0617 6.645 21.675 7.37967 21.4044 8.211C21.153 9.023 21.0274 9.85433 21.0274 10.705ZM40.1343 21V0.409999H48.8633C49.8106 0.409999 50.6806 0.612999 51.4733 1.019C52.2853 1.40567 52.9813 1.92767 53.5613 2.585C54.1413 3.223 54.5956 3.95767 54.9243 4.789C55.2529 5.601 55.4173 6.42267 55.4173 7.254C55.4173 8.124 55.2626 8.97467 54.9533 9.806C54.6439 10.618 54.2089 11.343 53.6483 11.981C53.0876 12.619 52.4109 13.1313 51.6183 13.518C50.8256 13.9047 49.9556 14.098 49.0083 14.098H44.1363V21H40.1343ZM44.1363 10.589H48.7763C49.5109 10.589 50.1199 10.2893 50.6033 9.69C51.1059 9.09067 51.3573 8.27867 51.3573 7.254C51.3573 6.732 51.2799 6.268 51.1253 5.862C50.9706 5.43667 50.7676 5.079 50.5163 4.789C50.2649 4.499 49.9653 4.28633 49.6173 4.151C49.2886 3.99633 48.9503 3.919 48.6023 3.919H44.1363V10.589ZM76.6435 5.804C76.5081 5.66867 76.2568 5.485 75.8895 5.253C75.5415 5.021 75.1065 4.79867 74.5845 4.586C74.0818 4.354 73.5308 4.16067 72.9315 4.006C72.3321 3.85133 71.7231 3.774 71.1045 3.774C70.0025 3.774 69.1808 3.977 68.6395 4.383C68.0981 4.789 67.8275 5.35933 67.8275 6.094C67.8275 6.51933 67.9241 6.877 68.1175 7.167C68.3301 7.43767 68.6298 7.67933 69.0165 7.892C69.4031 8.10467 69.8865 8.298 70.4665 8.472C71.0658 8.646 71.7521 8.82967 72.5255 9.023C73.5308 9.29367 74.4395 9.58367 75.2515 9.893C76.0828 10.2023 76.7788 10.589 77.3395 11.053C77.9195 11.517 78.3641 12.0777 78.6735 12.735C78.9828 13.373 79.1375 14.1657 79.1375 15.113C79.1375 16.215 78.9248 17.1623 78.4995 17.955C78.0935 18.7283 77.5328 19.3567 76.8175 19.84C76.1215 20.3233 75.3095 20.681 74.3815 20.913C73.4728 21.1257 72.5158 21.232 71.5105 21.232C69.9638 21.232 68.4365 21 66.9285 20.536C65.4205 20.072 64.0671 19.4147 62.8685 18.564L64.6375 15.113C64.8115 15.287 65.1208 15.519 65.5655 15.809C66.0295 16.0797 66.5708 16.36 67.1895 16.65C67.8081 16.9207 68.4945 17.1527 69.2485 17.346C70.0025 17.5393 70.7758 17.636 71.5685 17.636C73.7725 17.636 74.8745 16.9303 74.8745 15.519C74.8745 15.0743 74.7488 14.6973 74.4975 14.388C74.2461 14.0787 73.8885 13.808 73.4245 13.576C72.9605 13.344 72.3998 13.1313 71.7425 12.938C71.0851 12.7447 70.3505 12.532 69.5385 12.3C68.5525 12.0293 67.6921 11.7393 66.9575 11.43C66.2421 11.1013 65.6428 10.7243 65.1595 10.299C64.6761 9.85433 64.3088 9.35167 64.0575 8.791C63.8255 8.211 63.7095 7.52467 63.7095 6.732C63.7095 5.688 63.9028 4.76 64.2895 3.948C64.6761 3.136 65.2078 2.45933 65.8845 1.918C66.5805 1.37667 67.3828 0.970665 68.2915 0.699999C69.2001 0.409999 70.1765 0.264999 71.2205 0.264999C72.6705 0.264999 74.0045 0.496999 75.2225 0.960999C76.4405 1.40567 77.5038 1.93733 78.4125 2.556L76.6435 5.804ZM97.419 3.919H90.836V21H86.863V3.919H80.28V0.409999H97.419V3.919ZM103.794 0.409999H107.332L115.162 21H111.044L109.13 15.867H101.938L100.053 21H95.935L103.794 0.409999ZM108.405 13.054L105.563 4.963L102.605 13.054H108.405ZM117.42 21V0.409999H126.526C127.474 0.409999 128.344 0.612999 129.136 1.019C129.948 1.40567 130.644 1.92767 131.224 2.585C131.804 3.223 132.259 3.95767 132.587 4.789C132.916 5.601 133.08 6.42267 133.08 7.254C133.08 8.588 132.742 9.806 132.065 10.908C131.408 11.9907 130.509 12.7737 129.368 13.257L134.066 21H129.571L125.366 14.098H121.422V21H117.42ZM121.422 10.589H126.439C126.807 10.589 127.145 10.502 127.454 10.328C127.783 10.154 128.063 9.922 128.295 9.632C128.527 9.32267 128.711 8.965 128.846 8.559C128.982 8.153 129.049 7.718 129.049 7.254C129.049 6.77067 128.972 6.326 128.817 5.92C128.663 5.514 128.45 5.166 128.179 4.876C127.928 4.56667 127.628 4.33467 127.28 4.18C126.952 4.006 126.613 3.919 126.265 3.919H121.422V10.589ZM148.974 5.804C148.838 5.66867 148.587 5.485 148.22 5.253C147.872 5.021 147.437 4.79867 146.915 4.586C146.412 4.354 145.861 4.16067 145.262 4.006C144.662 3.85133 144.053 3.774 143.435 3.774C142.333 3.774 141.511 3.977 140.97 4.383C140.428 4.789 140.158 5.35933 140.158 6.094C140.158 6.51933 140.254 6.877 140.448 7.167C140.66 7.43767 140.96 7.67933 141.347 7.892C141.733 8.10467 142.217 8.298 142.797 8.472C143.396 8.646 144.082 8.82967 144.856 9.023C145.861 9.29367 146.77 9.58367 147.582 9.893C148.413 10.2023 149.109 10.589 149.67 11.053C150.25 11.517 150.694 12.0777 151.004 12.735C151.313 13.373 151.468 14.1657 151.468 15.113C151.468 16.215 151.255 17.1623 150.83 17.955C150.424 18.7283 149.863 19.3567 149.148 19.84C148.452 20.3233 147.64 20.681 146.712 20.913C145.803 21.1257 144.846 21.232 143.841 21.232C142.294 21.232 140.767 21 139.259 20.536C137.751 20.072 136.397 19.4147 135.199 18.564L136.968 15.113C137.142 15.287 137.451 15.519 137.896 15.809C138.36 16.0797 138.901 16.36 139.52 16.65C140.138 16.9207 140.825 17.1527 141.579 17.346C142.333 17.5393 143.106 17.636 143.899 17.636C146.103 17.636 147.205 16.9303 147.205 15.519C147.205 15.0743 147.079 14.6973 146.828 14.388C146.576 14.0787 146.219 13.808 145.755 13.576C145.291 13.344 144.73 13.1313 144.073 12.938C143.415 12.7447 142.681 12.532 141.869 12.3C140.883 12.0293 140.022 11.7393 139.288 11.43C138.572 11.1013 137.973 10.7243 137.49 10.299C137.006 9.85433 136.639 9.35167 136.388 8.791C136.156 8.211 136.04 7.52467 136.04 6.732C136.04 5.688 136.233 4.76 136.62 3.948C137.006 3.136 137.538 2.45933 138.215 1.918C138.911 1.37667 139.713 0.970665 140.622 0.699999C141.53 0.409999 142.507 0.264999 143.551 0.264999C145.001 0.264999 146.335 0.496999 147.553 0.960999C148.771 1.40567 149.834 1.93733 150.743 2.556L148.974 5.804Z" fill="#EC008C"/>
</svg>
